# xmcd
# 
# Track frame offsets:
#     150
#     19322
#     29802
#     41657
#     57715
#     68435
#     81615
#     95085
#     107107
#     120257
# 
# Disc length: 1798 seconds
# 
# Revision: 4
# Processed by: cddbd v1.5.1PL0 Copyright (c) Steve Scherf et al.
# Submitted via: BonkEnc v1.0beta1
# 
DISCID=8e07040a
DTITLE=Various Artist - Country Hits
DYEAR=1991
DGENRE=country
TTITLE0=Marty Robbins /El Paso City
TTITLE1=Willie Nelson - Blue Eyes Crying In The Rain
TTITLE2=Larry Gatlin and the Gatlin Brothers Band /All The Gold In California
TTITLE3=Crystal Gayle - Its Like We Never Said Goodbye
TTITLE4=Johnny Cash - Daddy Sang Bass
TTITLE5=Mickey Gilley /True Love Ways
TTITLE6=Rickey Skaggs - Crying My Heart Out Over You
TTITLE7=Moe Brandy and Janie Fricke /It's A Cheating Situation
TTITLE8=Charlie Rich - Behind Closed Doors
TTITLE9=George Jones /He Stopped Loving Her Today
EXTD=
EXTT0=
EXTT1=
EXTT2=
EXTT3=
EXTT4=
EXTT5=
EXTT6=
EXTT7=
EXTT8=
EXTT9=
PLAYORDER=
